<?xml version="1.0" standalone="no"?>
<!DOCTYPE svg PUBLIC "-//W3C//DTD SVG 20010904//EN"
 "http://www.w3.org/TR/2001/REC-SVG-20010904/DTD/svg10.dtd">
<svg version="1.0" xmlns="http://www.w3.org/2000/svg"
 width="339.000000pt" height="98.000000pt" viewBox="0 0 339.000000 98.000000"
 preserveAspectRatio="xMidYMid meet">

<g transform="translate(0.000000,98.000000) scale(0.100000,-0.100000)"
fill="#000000" stroke="none">
<path d="M1790 897 l-95 -52 -3 -73 -3 -72 -194 0 -194 0 -3 67 -3 68 -100 54
-99 54 -91 -48 c-49 -26 -96 -52 -102 -58 -8 -6 -13 -34 -13 -73 l0 -64 -210
0 -209 0 -3 67 -3 68 -100 54 -99 54 -91 -48 c-49 -26 -96 -52 -103 -58 -9 -7
-12 -40 -10 -121 l3 -111 37 -20 38 -20 0 -122 0 -123 135 0 135 0 0 -70 c0
-80 -9 -70 132 -144 l75 -40 99 55 99 54 3 73 3 72 209 0 210 0 0 -70 c0 -80
-9 -70 132 -144 l75 -40 99 55 99 54 3 73 3 72 194 0 195 0 0 -65 c0 -74 -8
-66 132 -139 l75 -40 99 55 99 54 3 68 3 67 199 0 199 0 3 -67 3 -68 99 -54
99 -55 75 40 c140 73 132 65 132 139 l0 65 40 0 40 0 0 190 0 190 -215 0 -215
0 0 69 c0 43 -5 72 -12 78 -7 6 -54 32 -103 58 l-91 48 -99 -54 -100 -54 -3
-73 -3 -72 -199 0 -199 0 -3 72 -3 73 -95 52 c-52 29 -99 52 -105 52 -5 0 -53
-23 -105 -52z m238 -74 c18 -11 22 -22 22 -68 l0 -55 -155 0 -156 0 3 58 3 57
75 41 75 40 55 -29 c30 -17 65 -36 78 -44z m810 0 c18 -11 22 -22 22 -68 l0
-55 -155 0 -156 0 3 58 3 57 75 41 75 40 55 -29 c30 -17 65 -36 78 -44z
m-2440 -10 c18 -11 22 -22 22 -63 l0 -50 -140 0 -140 0 0 -40 c0 -31 -3 -38
-15 -33 -13 4 -15 21 -13 92 l3 86 75 41 75 40 55 -29 c30 -17 65 -36 78 -44z
m830 0 c18 -11 22 -22 22 -63 l0 -50 -156 0 -155 0 3 53 3 52 75 41 75 40 55
-29 c30 -17 65 -36 78 -44z m2062 -303 l0 -140 -1550 0 -1550 0 0 140 0 140
1550 0 1550 0 0 -140z m-2520 -247 l0 -58 -77 -41 -77 -41 -78 41 -78 41 0 58
0 57 155 0 155 0 0 -57z m830 0 l0 -58 -77 -41 -77 -41 -78 41 -78 41 0 58 0
57 155 0 155 0 0 -57z m800 5 l0 -53 -77 -41 -77 -41 -78 41 -78 41 0 53 0 52
155 0 155 0 0 -52z m810 0 l0 -53 -77 -41 -77 -41 -78 41 -78 41 0 53 0 52
155 0 155 0 0 -52z"/>
<path d="M720 605 c0 -10 7 -15 18 -13 21 4 19 22 -2 26 -10 2 -16 -3 -16 -13z"/>
<path d="M790 515 c0 -87 3 -105 15 -105 12 0 15 18 15 105 0 87 -3 105 -15
105 -12 0 -15 -18 -15 -105z"/>
<path d="M1010 605 c0 -10 7 -15 18 -13 21 4 19 22 -2 26 -10 2 -16 -3 -16
-13z"/>
<path d="M1910 605 c0 -10 7 -15 18 -13 21 4 19 22 -2 26 -10 2 -16 -3 -16
-13z"/>
<path d="M3060 605 c0 -10 7 -15 18 -13 21 4 19 22 -2 26 -10 2 -16 -3 -16
-13z"/>
<path d="M230 510 c0 -82 3 -100 15 -100 11 0 15 11 15 40 0 35 3 40 23 40 36
0 67 27 67 60 0 41 -24 60 -76 60 l-44 0 0 -100z m78 68 c18 -18 14 -46 -7
-58 -33 -17 -41 -11 -41 30 0 32 4 40 18 40 10 0 23 -5 30 -12z"/>
<path d="M1480 510 l0 -100 55 0 c30 0 55 5 55 10 0 6 -18 10 -40 10 -39 0
-40 1 -40 35 0 33 2 35 35 35 19 0 35 5 35 10 0 6 -16 10 -35 10 -33 0 -35 2
-35 35 0 34 1 35 40 35 22 0 40 5 40 10 0 6 -25 10 -55 10 l-55 0 0 -100z"/>
<path d="M2083 595 c-46 -33 -49 -131 -5 -165 74 -59 172 18 148 115 -15 60
-91 86 -143 50z m99 -28 c28 -42 16 -104 -24 -126 -23 -13 -29 -13 -52 2 -22
15 -26 25 -26 67 0 39 4 52 23 65 23 17 66 12 79 -8z"/>
<path d="M2270 580 c0 -11 -7 -20 -15 -20 -8 0 -15 -4 -15 -10 0 -5 7 -10 15
-10 11 0 15 -13 15 -53 0 -29 5 -58 12 -65 17 -17 58 -15 58 2 0 8 -8 13 -17
12 -15 -1 -19 9 -21 52 -3 47 -1 52 17 52 12 0 21 5 21 10 0 6 -9 10 -20 10
-13 0 -20 7 -20 20 0 11 -7 20 -15 20 -8 0 -15 -9 -15 -20z"/>
<path d="M2960 580 c0 -11 -7 -20 -15 -20 -8 0 -15 -4 -15 -10 0 -5 7 -10 15
-10 11 0 15 -13 15 -53 0 -29 5 -58 12 -65 17 -17 58 -15 58 2 0 8 -8 13 -17
12 -15 -1 -19 9 -21 52 -3 47 -1 52 17 52 12 0 21 5 21 10 0 6 -9 10 -20 10
-13 0 -20 7 -20 20 0 11 -7 20 -15 20 -8 0 -15 -9 -15 -20z"/>
<path d="M405 540 c-25 -27 -24 -83 0 -110 14 -16 29 -20 59 -18 22 2 41 9 44
16 3 9 -3 11 -21 7 -35 -9 -64 2 -70 25 -5 18 0 20 50 20 55 0 55 0 49 28 -13
52 -76 71 -111 32z m75 -15 c18 -21 9 -27 -36 -23 -36 3 -37 4 -20 21 21 21
40 22 56 2z"/>
<path d="M550 485 c0 -60 3 -75 15 -75 11 0 15 12 15 49 0 46 17 81 39 81 19
0 31 -29 31 -77 0 -40 4 -53 15 -53 21 0 21 98 -1 128 -17 24 -53 29 -72 10
-9 -9 -12 -9 -12 0 0 7 -7 12 -15 12 -12 0 -15 -15 -15 -75z"/>
<path d="M720 485 c0 -60 3 -75 15 -75 12 0 15 15 15 75 0 60 -3 75 -15 75
-12 0 -15 -15 -15 -75z"/>
<path d="M867 553 c-16 -15 -5 -22 30 -20 29 1 38 -2 41 -15 2 -13 -3 -18 -20
-18 -29 0 -68 -26 -68 -45 0 -28 30 -45 75 -43 l45 2 0 61 c0 34 -5 66 -12 73
-13 13 -80 17 -91 5z m73 -92 c0 -23 -37 -38 -53 -22 -7 7 -6 15 3 26 18 22
50 19 50 -4z"/>
<path d="M1010 485 c0 -60 3 -75 15 -75 12 0 15 15 15 75 0 60 -3 75 -15 75
-12 0 -15 -15 -15 -75z"/>
<path d="M1087 553 c-16 -15 -5 -22 30 -20 29 1 38 -2 41 -15 2 -13 -3 -18
-20 -18 -29 0 -68 -26 -68 -45 0 -28 30 -45 75 -43 l45 2 0 61 c0 34 -5 66
-12 73 -13 13 -80 17 -91 5z m73 -92 c0 -23 -37 -38 -53 -22 -7 7 -6 15 3 26
18 22 50 19 50 -4z"/>
<path d="M1230 485 c0 -60 3 -75 15 -75 11 0 15 12 15 49 0 46 17 81 39 81 19
0 31 -29 31 -77 0 -40 4 -53 15 -53 21 0 21 98 -1 128 -17 24 -53 29 -72 10
-9 -9 -12 -9 -12 0 0 7 -7 12 -15 12 -12 0 -15 -15 -15 -75z"/>
<path d="M1642 548 c-23 -23 -14 -53 23 -71 25 -12 33 -21 28 -33 -4 -12 -14
-14 -40 -9 -27 5 -34 3 -31 -7 6 -17 65 -23 84 -7 8 6 14 22 14 36 0 18 -9 28
-36 39 -42 18 -40 40 5 37 20 0 31 3 28 10 -5 17 -60 20 -75 5z"/>
<path d="M1767 553 c-16 -15 -5 -22 30 -20 29 1 38 -2 41 -15 2 -13 -3 -18
-20 -18 -29 0 -68 -26 -68 -45 0 -28 30 -45 75 -43 l45 2 0 61 c0 34 -5 66
-12 73 -13 13 -80 17 -91 5z m73 -92 c0 -23 -37 -38 -53 -22 -7 7 -6 15 3 26
18 22 50 19 50 -4z"/>
<path d="M1910 485 c0 -60 3 -75 15 -75 12 0 15 15 15 75 0 60 -3 75 -15 75
-12 0 -15 -15 -15 -75z"/>
<path d="M2393 545 c-27 -19 -38 -67 -22 -97 16 -31 28 -38 66 -38 35 0 73 37
73 72 0 22 -18 60 -34 70 -18 13 -60 9 -83 -7z m64 -13 c22 -14 25 -57 5 -81
-38 -48 -92 12 -57 65 16 25 31 29 52 16z"/>
<path d="M2540 485 c0 -60 3 -75 15 -75 11 0 15 12 15 49 0 50 20 86 44 78 6
-2 12 -31 14 -65 2 -46 7 -62 17 -62 11 0 15 13 15 48 0 37 5 54 21 68 20 18
21 18 35 -1 8 -10 14 -40 14 -67 0 -38 3 -48 16 -48 14 0 16 9 11 60 -3 34
-11 67 -17 75 -15 18 -52 19 -68 3 -9 -9 -15 -9 -24 0 -7 7 -21 12 -33 12 -12
0 -26 -5 -33 -12 -9 -9 -12 -9 -12 0 0 7 -7 12 -15 12 -12 0 -15 -15 -15 -75z"/>
<path d="M2807 553 c-16 -15 -5 -22 30 -20 29 1 38 -2 41 -15 2 -13 -3 -18
-20 -18 -29 0 -68 -26 -68 -45 0 -28 30 -45 75 -43 l45 2 0 61 c0 34 -5 66
-12 73 -13 13 -80 17 -91 5z m73 -92 c0 -23 -37 -38 -53 -22 -7 7 -6 15 3 26
18 22 50 19 50 -4z"/>
<path d="M3060 485 c0 -60 3 -75 15 -75 12 0 15 15 15 75 0 60 -3 75 -15 75
-12 0 -15 -15 -15 -75z"/>
<path d="M3142 548 c-23 -23 -14 -53 23 -71 25 -12 33 -21 28 -33 -4 -12 -14
-14 -40 -9 -27 5 -34 3 -31 -7 6 -17 65 -23 84 -7 8 6 14 22 14 36 0 18 -9 28
-36 39 -42 18 -40 40 5 37 20 0 31 3 28 10 -5 17 -60 20 -75 5z"/>
</g>
</svg>
